<svg xmlns="http://www.w3.org/2000/svg" viewBox="0 0 20.1 26.8">
  <defs>
    <style>
      .cls-1 {
        fill: #8c9599;
      }
    </style>
  </defs>
  <path id="password" class="cls-1" d="M4.948,26.8A4.949,4.949,0,0,1,0,21.853V10.411H3.607V6.495a6.494,6.494,0,1,1,12.988,0v3.916h3.5V21.853A4.949,4.949,0,0,1,15.153,26.8ZM1.03,21.75a3.915,3.915,0,0,0,3.918,3.916h10.2a3.915,3.915,0,0,0,3.916-3.916V11.339H1.03Zm3.5-15.255v3.916H15.462V6.495a5.464,5.464,0,1,0-10.927,0ZM8.349,17.627a1.65,1.65,0,1,1,3.3,0c0,.825-.722,3.814-1.65,3.814S8.349,18.555,8.349,17.627Z" transform="translate(0 0)"/>
</svg>
