<svg xmlns="http://www.w3.org/2000/svg" viewBox="0 0 16.451 22.823">
  <defs>
    <style>
      .cls-1 {
        fill: #8c9599;
      }
    </style>
  </defs>
  <path id="mobile" class="cls-1" d="M3.348,22.823A3.314,3.314,0,0,1,0,19.628V3.2A3.23,3.23,0,0,1,3.252,0H13.1a3.315,3.315,0,0,1,3.348,3.2V19.628a3.315,3.315,0,0,1-3.348,3.2ZM.86,19.628a2.317,2.317,0,0,0,2.392,2.283H13.1A2.179,2.179,0,0,0,15.4,19.628V14.789H.86ZM.956,3.2V13.969H15.494V3.2A2.316,2.316,0,0,0,13.1.913H3.252A2.294,2.294,0,0,0,.956,3.2ZM7.221,18.351a1,1,0,1,1,1,1A1.013,1.013,0,0,1,7.221,18.351Z" transform="translate(0)"/>
</svg>
